<svg xmlns="http://www.w3.org/2000/svg" viewBox="0 0 32 32" fill="none">
  <rect width="32" height="32" rx="8" fill="#0f172a"/>
  <path d="M8 10C8 8.89543 8.89543 8 10 8H14C15.1046 8 16 8.89543 16 10V22C16 23.1046 15.1046 24 14 24H10C8.89543 24 8 23.1046 8 22V10Z" fill="#22c55e"/>
  <path d="M16 10C16 8.89543 16.8954 8 18 8H22C23.1046 8 24 8.89543 24 10V22C24 23.1046 23.1046 24 22 24H18C16.8954 24 16 23.1046 16 22V10Z" fill="#4ade80"/>
  <circle cx="12" cy="13" r="2" fill="#0f172a"/>
  <circle cx="20" cy="13" r="2" fill="#0f172a"/>
</svg>

